<mxfile host="app.diagrams.net" agent="Mozilla/5.0 (Windows NT 10.0; Win64; x64) AppleWebKit/537.36 (KHTML, like Gecko) Chrome/133.0.0.0 Safari/537.36" version="26.0.14">
  <diagram name="Page-1" id="mhUYI9VvA16indRH3QtL">
    <mxGraphModel dx="880" dy="468" grid="1" gridSize="10" guides="1" tooltips="1" connect="1" arrows="1" fold="1" page="1" pageScale="1" pageWidth="850" pageHeight="1100" math="0" shadow="0">
      <root>
        <mxCell id="0" />
        <mxCell id="1" parent="0" />
        <mxCell id="mRFKW1IroVncNAavuF7v-80" value="" style="rounded=0;whiteSpace=wrap;html=1;labelBackgroundColor=none;fillColor=#E9E9B9;strokeColor=#d79b00;fontStyle=0" vertex="1" parent="1">
          <mxGeometry x="300" y="20" width="300" height="430" as="geometry" />
        </mxCell>
        <mxCell id="mRFKW1IroVncNAavuF7v-70" value="&lt;font style=&quot;color: rgb(0, 0, 0);&quot;&gt;Start Game&lt;/font&gt;" style="ellipse;whiteSpace=wrap;html=1;labelBackgroundColor=none;fillColor=#B2C9AB;strokeColor=#1B3E6F;fontColor=#46495D;fontStyle=0" vertex="1" parent="1">
          <mxGeometry x="360" y="40" width="105" height="40" as="geometry" />
        </mxCell>
        <mxCell id="mRFKW1IroVncNAavuF7v-71" value="&lt;font style=&quot;color: rgb(0, 0, 0);&quot;&gt;Move Snake&lt;/font&gt;" style="ellipse;whiteSpace=wrap;html=1;labelBackgroundColor=none;fillColor=#B2C9AB;strokeColor=#1B3E6F;fontColor=#46495D;fontStyle=0" vertex="1" parent="1">
          <mxGeometry x="317" y="100" width="108.5" height="40" as="geometry" />
        </mxCell>
        <mxCell id="mRFKW1IroVncNAavuF7v-72" value="&lt;font style=&quot;color: rgb(0, 0, 0);&quot;&gt;Eat Food&lt;/font&gt;" style="ellipse;whiteSpace=wrap;html=1;labelBackgroundColor=none;fillColor=#B2C9AB;strokeColor=#1B3E6F;fontColor=#46495D;fontStyle=0" vertex="1" parent="1">
          <mxGeometry x="317.5" y="300" width="95" height="40" as="geometry" />
        </mxCell>
        <mxCell id="mRFKW1IroVncNAavuF7v-73" value="&lt;font style=&quot;color: rgb(0, 0, 0);&quot;&gt;End Game&lt;/font&gt;" style="ellipse;whiteSpace=wrap;html=1;labelBackgroundColor=none;fillColor=#B2C9AB;strokeColor=#1B3E6F;fontColor=#46495D;fontStyle=0" vertex="1" parent="1">
          <mxGeometry x="484" y="300" width="100" height="40" as="geometry" />
        </mxCell>
        <mxCell id="mRFKW1IroVncNAavuF7v-74" value="&lt;font style=&quot;color: rgb(0, 0, 0);&quot;&gt;Player&lt;/font&gt;" style="shape=umlActor;verticalLabelPosition=bottom;verticalAlign=top;html=1;labelBackgroundColor=none;fillColor=#B2C9AB;strokeColor=#000000;fontColor=#46495D;fontStyle=0" vertex="1" parent="1">
          <mxGeometry x="200" y="30" width="30" height="60" as="geometry" />
        </mxCell>
        <mxCell id="mRFKW1IroVncNAavuF7v-78" value="&lt;font style=&quot;color: rgb(0, 0, 0);&quot;&gt;Detect Collision&lt;/font&gt;" style="ellipse;whiteSpace=wrap;html=1;labelBackgroundColor=none;fillColor=#B2C9AB;strokeColor=#1B3E6F;fontColor=#46495D;fontStyle=0" vertex="1" parent="1">
          <mxGeometry x="410" y="190" width="115" height="40" as="geometry" />
        </mxCell>
        <mxCell id="mRFKW1IroVncNAavuF7v-79" value="&lt;font style=&quot;color: rgb(0, 0, 0);&quot;&gt;Grow Snake&lt;/font&gt;" style="ellipse;whiteSpace=wrap;html=1;labelBackgroundColor=none;fillColor=#B2C9AB;strokeColor=#1B3E6F;fontColor=#46495D;fontStyle=0" vertex="1" parent="1">
          <mxGeometry x="350" y="390" width="95" height="40" as="geometry" />
        </mxCell>
        <mxCell id="mRFKW1IroVncNAavuF7v-81" value="" style="endArrow=none;html=1;rounded=0;entryX=0;entryY=0.5;entryDx=0;entryDy=0;exitX=1;exitY=0.3333333333333333;exitDx=0;exitDy=0;exitPerimeter=0;labelBackgroundColor=none;strokeColor=#1B3E6F;fontColor=default;fontStyle=0" edge="1" parent="1" source="mRFKW1IroVncNAavuF7v-74" target="mRFKW1IroVncNAavuF7v-70">
          <mxGeometry width="50" height="50" relative="1" as="geometry">
            <mxPoint x="360" y="220" as="sourcePoint" />
            <mxPoint x="410" y="170" as="targetPoint" />
          </mxGeometry>
        </mxCell>
        <mxCell id="mRFKW1IroVncNAavuF7v-82" value="" style="endArrow=none;html=1;rounded=0;entryX=0;entryY=0;entryDx=0;entryDy=0;exitX=0.767;exitY=0.317;exitDx=0;exitDy=0;exitPerimeter=0;labelBackgroundColor=none;strokeColor=#1B3E6F;fontColor=default;fontStyle=0" edge="1" parent="1" source="mRFKW1IroVncNAavuF7v-74" target="mRFKW1IroVncNAavuF7v-71">
          <mxGeometry width="50" height="50" relative="1" as="geometry">
            <mxPoint x="190" y="100" as="sourcePoint" />
            <mxPoint x="410" y="170" as="targetPoint" />
          </mxGeometry>
        </mxCell>
        <mxCell id="mRFKW1IroVncNAavuF7v-83" value="includes" style="endArrow=open;endSize=12;dashed=1;html=1;rounded=0;exitX=0.221;exitY=1.025;exitDx=0;exitDy=0;entryX=0;entryY=0.5;entryDx=0;entryDy=0;exitPerimeter=0;labelBackgroundColor=none;strokeColor=#1B3E6F;fontColor=default;fontStyle=0" edge="1" parent="1" source="mRFKW1IroVncNAavuF7v-71" target="mRFKW1IroVncNAavuF7v-78">
          <mxGeometry width="160" relative="1" as="geometry">
            <mxPoint x="310" y="200" as="sourcePoint" />
            <mxPoint x="470" y="200" as="targetPoint" />
          </mxGeometry>
        </mxCell>
        <mxCell id="mRFKW1IroVncNAavuF7v-85" value="extends" style="endArrow=open;endSize=12;dashed=1;html=1;rounded=0;exitX=1;exitY=1;exitDx=0;exitDy=0;labelBackgroundColor=none;strokeColor=#1B3E6F;fontColor=default;entryX=0.44;entryY=0.075;entryDx=0;entryDy=0;entryPerimeter=0;fontStyle=0" edge="1" parent="1" source="mRFKW1IroVncNAavuF7v-78" target="mRFKW1IroVncNAavuF7v-73">
          <mxGeometry width="160" relative="1" as="geometry">
            <mxPoint x="310" y="200" as="sourcePoint" />
            <mxPoint x="470" y="200" as="targetPoint" />
          </mxGeometry>
        </mxCell>
        <mxCell id="mRFKW1IroVncNAavuF7v-87" value="includes" style="endArrow=open;endSize=12;dashed=1;html=1;rounded=0;entryX=0.5;entryY=0;entryDx=0;entryDy=0;exitX=0;exitY=1;exitDx=0;exitDy=0;labelBackgroundColor=none;strokeColor=#1B3E6F;fontColor=default;fontStyle=0" edge="1" parent="1" source="mRFKW1IroVncNAavuF7v-78" target="mRFKW1IroVncNAavuF7v-72">
          <mxGeometry width="160" relative="1" as="geometry">
            <mxPoint x="310" y="200" as="sourcePoint" />
            <mxPoint x="470" y="200" as="targetPoint" />
          </mxGeometry>
        </mxCell>
        <mxCell id="mRFKW1IroVncNAavuF7v-88" value="includes" style="endArrow=open;endSize=12;dashed=1;html=1;rounded=0;entryX=0.5;entryY=0;entryDx=0;entryDy=0;exitX=0.5;exitY=1;exitDx=0;exitDy=0;labelBackgroundColor=none;strokeColor=#1B3E6F;fontColor=default;fontStyle=0" edge="1" parent="1" source="mRFKW1IroVncNAavuF7v-72" target="mRFKW1IroVncNAavuF7v-79">
          <mxGeometry width="160" relative="1" as="geometry">
            <mxPoint x="310" y="300" as="sourcePoint" />
            <mxPoint x="470" y="300" as="targetPoint" />
          </mxGeometry>
        </mxCell>
      </root>
    </mxGraphModel>
  </diagram>
</mxfile>
